<?xml version="1.0" encoding="UTF-8" standalone="no"?>
<!-- Created with Inkscape (http://www.inkscape.org/) -->

<svg
   width="302.87723mm"
   height="303.07855mm"
   viewBox="0 0 302.87723 303.07855"
   version="1.1"
   id="svg1"
   inkscape:version="1.3.1 (91b66b0783, 2023-11-16)"
   sodipodi:docname="disegno.svg"
   xmlns:inkscape="http://www.inkscape.org/namespaces/inkscape"
   xmlns:sodipodi="http://sodipodi.sourceforge.net/DTD/sodipodi-0.dtd"
   xmlns:xlink="http://www.w3.org/1999/xlink"
   xmlns="http://www.w3.org/2000/svg"
   xmlns:svg="http://www.w3.org/2000/svg">
  <sodipodi:namedview
     id="namedview1"
     pagecolor="#505050"
     bordercolor="#eeeeee"
     borderopacity="1"
     inkscape:showpageshadow="0"
     inkscape:pageopacity="0"
     inkscape:pagecheckerboard="0"
     inkscape:deskcolor="#505050"
     inkscape:document-units="mm"
     inkscape:zoom="0.32"
     inkscape:cx="6065.625"
     inkscape:cy="5145.3125"
     inkscape:window-width="1386"
     inkscape:window-height="869"
     inkscape:window-x="365"
     inkscape:window-y="163"
     inkscape:window-maximized="0"
     inkscape:current-layer="g66" />
  <defs
     id="defs1">
    <linearGradient
       id="linearGradient17"
       inkscape:collect="always">
      <stop
         style="stop-color:#7aa2f7;stop-opacity:1;"
         offset="0"
         id="stop16" />
      <stop
         style="stop-color:#02fff3;stop-opacity:1;"
         offset="1"
         id="stop17" />
    </linearGradient>
    <linearGradient
       inkscape:collect="always"
       xlink:href="#linearGradient17"
       id="linearGradient66"
       gradientUnits="userSpaceOnUse"
       gradientTransform="matrix(0,0.83379247,-0.46687862,0,1566.4664,535.34953)"
       x1="940.71777"
       y1="1429.8835"
       x2="940.71777"
       y2="1067.6799" />
    <linearGradient
       inkscape:collect="always"
       xlink:href="#linearGradient17"
       id="linearGradient70"
       gradientUnits="userSpaceOnUse"
       gradientTransform="matrix(0.87713149,0,0,0.46687862,80.971291,619.33015)"
       x1="940.71777"
       y1="1429.8835"
       x2="940.71777"
       y2="1067.6799" />
    <linearGradient
       inkscape:collect="always"
       xlink:href="#linearGradient17"
       id="linearGradient71"
       gradientUnits="userSpaceOnUse"
       gradientTransform="matrix(-0.87713149,0,0,-0.46687862,1715.7255,2007.5441)"
       x1="940.71777"
       y1="1429.8835"
       x2="940.71777"
       y2="1067.6799" />
    <linearGradient
       inkscape:collect="always"
       xlink:href="#linearGradient17"
       id="linearGradient72"
       gradientUnits="userSpaceOnUse"
       gradientTransform="matrix(0,0.83379247,-0.46687862,0,1590.2375,527.28842)"
       x1="940.71777"
       y1="1429.8835"
       x2="940.71777"
       y2="1067.6799" />
    <linearGradient
       inkscape:collect="always"
       xlink:href="#linearGradient17"
       id="linearGradient74"
       x1="1432.1896"
       y1="1296.5363"
       x2="1742.9667"
       y2="1296.5363"
       gradientUnits="userSpaceOnUse"
       gradientTransform="rotate(15,1587.5781,1296.5363)" />
  </defs>
  <g
     inkscape:label="Livello 1"
     inkscape:groupmode="layer"
     id="layer1"
     transform="translate(-1436.3324,-1145.2126)">
    <g
       id="g66">
      <path
         style="fill:url(#linearGradient66);stroke:none;stroke-width:6.23923;stroke-linecap:butt;stroke-linejoin:miter;stroke-miterlimit:3.8;stroke-dasharray:none;stroke-dashoffset:0;stroke-opacity:1"
         d="m 820.06906,1397.3479 -65.09318,-86.447 61.06139,-78.7368 c 0,0 -135.83406,34.8956 -135.83409,81.384 -3e-5,47.8683 139.86588,83.7998 139.86588,83.7998 z"
         id="path70" />
      <path
         style="fill:url(#linearGradient72);stroke:none;stroke-width:6.23923;stroke-linecap:butt;stroke-linejoin:miter;stroke-miterlimit:3.8;stroke-dasharray:none;stroke-dashoffset:0;stroke-opacity:1"
         d="m 988.06651,1221.6871 65.09319,86.4472 -61.06139,78.7366 c 0,0 135.83399,-34.8955 135.83409,-81.3839 10e-5,-47.8684 -139.86589,-83.7999 -139.86589,-83.7999 z"
         id="path68" />
      <path
         style="fill:url(#linearGradient70);stroke:none;stroke-width:6.39933;stroke-linecap:butt;stroke-linejoin:miter;stroke-miterlimit:3.8;stroke-dasharray:none;stroke-dashoffset:0;stroke-opacity:1"
         d="m 811.46354,1221.5012 90.94055,-65.0933 82.82916,61.0615 c 0,0 -36.70924,-135.8341 -85.61406,-135.8342 -50.35645,-10e-5 -88.15565,139.866 -88.15565,139.866 z"
         id="path68-1" />
      <path
         style="fill:url(#linearGradient71);stroke:none;stroke-width:6.39933;stroke-linecap:butt;stroke-linejoin:miter;stroke-miterlimit:3.8;stroke-dasharray:none;stroke-dashoffset:0;stroke-opacity:1"
         d="m 985.23333,1405.373 -90.94065,65.0933 -82.8292,-61.0615 c 0,0 36.70928,135.8341 85.61409,135.8343 50.35647,10e-5 88.15568,-139.8661 88.15576,-139.8661 z"
         id="path68-1-3" />
      <path
         id="rect67"
         style="fill:#ffffff;fill-opacity:1;stroke:none;stroke-width:10.7269;stroke-linecap:butt;stroke-linejoin:miter;stroke-miterlimit:3.8;stroke-dasharray:none;stroke-dashoffset:0;stroke-opacity:1"
         d="M 1281.0143,1649.7153 967.17662,1963.553 H 1053.96 l 227.0543,-227.0549 z m 36.1627,5e-4 v 86.7829 l 227.0538,227.0543 h 86.7839 z m -350.00038,349.9993 313.83768,313.8377 v -86.7833 L 1053.96,1999.7151 Z m 577.05418,0 -227.0538,227.0539 v 86.7833 l 313.8377,-313.8372 z" />
      <path
         id="rect67-5"
         style="fill:url(#linearGradient74);fill-opacity:1;stroke:none;stroke-width:4.89387;stroke-linecap:butt;stroke-linejoin:miter;stroke-miterlimit:3.8;stroke-dasharray:none;stroke-dashoffset:0;stroke-opacity:1"
         d="m 1618.8029,1148.1318 c -61.0481,-16.3578 -158.5676,38.5758 -175.3594,101.2438 -3.4157,12.7478 25.1589,11.9699 38.2436,10.2473 48.414,-6.3738 97.1416,-34.5069 126.8685,-73.2478 8.0341,-10.4703 22.9951,-34.8275 10.2473,-38.2433 z m 15.9361,4.2703 c -12.7479,-3.4158 -11.97,25.1588 -10.2473,38.2434 6.3737,48.4138 34.5066,97.1415 73.2473,126.8683 10.4703,8.0342 34.828,22.9953 38.2438,10.2474 17.5481,-65.4906 -39.3405,-158.7722 -101.2438,-175.3591 z m -195.5655,112.9093 c -16.3998,61.205 40.9551,159.205 101.2438,175.3593 12.7479,3.4158 11.97,-25.1589 10.2473,-38.2435 -6.3738,-48.4139 -34.5068,-97.1416 -73.2475,-126.8685 -10.4703,-8.0341 -34.8278,-22.9952 -38.2436,-10.2473 z m 254.2955,68.1383 c -48.4138,6.3737 -97.1415,34.5067 -126.8682,73.2474 -8.0342,10.4703 -22.9952,34.8277 -10.2473,38.2435 62.0657,16.6305 156.3908,-30.4523 175.3593,-101.2436 3.4158,-12.7479 -25.1591,-11.97 -38.2438,-10.2473 z"
         sodipodi:nodetypes="ssssssasssssssssssss" />
    </g>
  </g>
</svg>
